<?xml version="1.0" encoding="UTF-8"?><svg id="Camada_1" xmlns="http://www.w3.org/2000/svg" viewBox="0 0 574.36 574.36"><defs><style>.cls-1{fill:#fff;stroke-width:0px;}</style></defs><path class="cls-1" d="m401.35,114.13c-.05-27.15-18.1-48.23-42-72.13C335.41,18.07,314.3.01,287.11,0c-27.18-.01-48.11,18.16-72.02,42.07-23.91,23.91-42.09,44.85-42.08,72.04,0,27.19,18.21,48.15,42.14,72.07,23.93,23.93,44.89,42.14,72.08,42.15,27.19,0,48.13-18.17,72.04-42.08,23.94-23.94,42.12-44.91,42.07-72.13"/><path class="cls-1" d="m574.36,287.14c-.05-27.15-18.1-48.23-42-72.13-23.93-23.93-45.05-41.99-72.23-42-27.18-.01-48.11,18.16-72.02,42.07-23.91,23.91-42.09,44.85-42.08,72.04,0,27.19,18.21,48.15,42.14,72.07,23.93,23.93,44.89,42.14,72.08,42.15,27.19,0,48.13-18.17,72.04-42.08,23.94-23.94,42.12-44.91,42.07-72.13"/><path class="cls-1" d="m228.33,287.14c-.05-27.15-18.1-48.23-42-72.13-23.93-23.93-45.05-41.99-72.23-42-27.18-.01-48.11,18.16-72.02,42.07C18.17,238.99-.01,259.94,0,287.13c0,27.19,18.21,48.15,42.14,72.07,23.93,23.93,44.89,42.14,72.08,42.15,27.19,0,48.13-18.17,72.04-42.08,23.94-23.94,42.12-44.91,42.07-72.13"/><path class="cls-1" d="m401.34,460.16c-.05-27.15-18.1-48.23-42-72.13-23.93-23.93-45.05-41.99-72.23-42-27.18-.01-48.11,18.16-72.02,42.07-23.91,23.91-42.09,44.85-42.08,72.04,0,27.19,18.21,48.15,42.14,72.07,23.93,23.93,44.89,42.14,72.08,42.15,27.19,0,48.13-18.17,72.04-42.08,23.94-23.94,42.12-44.91,42.07-72.13"/></svg>